<?xml version="1.0" standalone="no"?>
<!DOCTYPE svg PUBLIC "-//W3C//DTD SVG 20010904//EN"
 "http://www.w3.org/TR/2001/REC-SVG-20010904/DTD/svg10.dtd">
<svg version="1.0" xmlns="http://www.w3.org/2000/svg"
 width="401.000000pt" height="401.000000pt" viewBox="0 0 401.000000 401.000000"
 preserveAspectRatio="xMidYMid meet">
<metadata>
Created by potrace 1.14, written by Peter Selinger 2001-2017
</metadata>
<g transform="translate(0.000000,401.000000) scale(0.100000,-0.100000)"
fill="#000000" stroke="none">
<path d="M0 2005 l0 -795 2005 0 2005 0 0 795 0 795 -2005 0 -2005 0 0 -795z
m3970 505 c0 -20 -7 -20 -1195 -20 -1188 0 -1195 0 -1195 20 0 20 7 20 1195
20 1188 0 1195 0 1195 -20z m-3652 -182 c6 -35 19 -114 28 -175 10 -62 21
-113 24 -113 4 0 15 53 24 118 10 64 22 143 28 175 l10 57 79 0 79 0 0 -350 0
-350 -65 0 -65 0 -1 168 -1 167 -24 -135 c-12 -74 -26 -150 -29 -167 -5 -28
-10 -33 -35 -33 -25 0 -30 5 -35 33 -4 17 -17 91 -30 162 l-23 130 -1 -162 -1
-163 -60 0 -60 0 0 350 0 350 74 0 74 0 10 -62z m572 4 l0 -58 -42 -14 c-76
-27 -113 -111 -106 -240 8 -125 62 -210 136 -210 20 0 22 -4 22 -61 l0 -61
-47 7 c-111 16 -170 66 -203 172 -75 245 11 477 191 512 24 5 45 9 47 10 1 1
2 -25 2 -57z m173 -174 c5 -240 14 -303 48 -334 39 -35 74 9 89 111 5 39 10
157 10 263 l0 192 56 0 55 0 -3 -277 c-3 -267 -4 -280 -26 -325 -13 -27 -37
-56 -55 -67 -70 -42 -176 -35 -228 15 -52 49 -59 98 -59 391 l0 263 54 0 54 0
5 -232z m797 192 l0 -40 -45 0 -45 0 0 -310 0 -310 -45 0 -45 0 0 310 0 310
-45 0 -45 0 0 40 0 40 135 0 135 0 0 -40z m140 -310 l0 -350 -40 0 -40 0 0
350 0 350 40 0 40 0 0 -350z m234 163 c21 -103 42 -197 46 -208 8 -21 9 -17
68 260 l27 130 48 3 47 3 0 -350 0 -351 -41 0 -41 0 4 225 c2 123 0 221 -3
217 -5 -6 -69 -290 -69 -308 0 -2 -15 -4 -34 -4 -39 0 -31 -20 -78 208 -12 62
-25 112 -28 112 -3 0 -4 -101 -2 -225 l3 -225 -40 0 -41 0 0 350 0 350 48 0
47 0 39 -187z m556 147 l0 -40 -70 0 -70 0 0 -110 0 -110 65 0 65 0 0 -40 0
-40 -65 0 -66 0 3 -117 3 -118 68 -3 67 -3 0 -39 0 -40 -110 0 -110 0 0 350 0
350 110 0 110 0 0 -40z m160 -270 l0 -310 65 0 65 0 0 -40 0 -40 -105 0 -105
0 0 350 0 350 40 0 40 0 0 -310z m280 -40 l0 -350 -40 0 -40 0 0 350 0 350 40
0 40 0 0 -350z m237 177 l52 -172 0 173 1 172 45 0 45 0 0 -350 0 -350 -45 0
-45 0 0 73 c1 59 -8 100 -47 225 -26 83 -51 152 -55 152 -5 0 -8 -101 -8 -225
l0 -225 -40 0 -40 0 0 350 0 350 43 0 42 0 52 -173z m463 133 l0 -39 -67 -3
-68 -3 0 -105 0 -105 63 -3 62 -3 0 -39 0 -40 -65 0 -66 0 3 -117 3 -118 68
-3 67 -3 0 -39 0 -40 -110 0 -110 0 0 350 0 350 110 0 110 0 0 -40z m40 -790
c0 -20 -7 -20 -1195 -20 -1188 0 -1195 0 -1195 20 0 20 7 20 1195 20 1188 0
1195 0 1195 -20z"/>
</g>
</svg>
